<svg width="17" height="17" viewBox="0 0 17 17" fill="none" xmlns="http://www.w3.org/2000/svg">
<g clip-path="url(#clip0_808_4565)">
<rect width="17" height="17" fill="black"/>
<path fill-rule="evenodd" clip-rule="evenodd" d="M8.43037 1.05176C12.5427 1.05176 15.8771 4.4009 15.8771 8.53146C15.8771 12.662 12.5427 16.0112 8.43037 16.0112C4.31802 16.0112 0.982422 12.6633 0.982422 8.5327C0.982422 4.40213 4.31802 1.05176 8.43037 1.05176ZM8.4107 7.67103C7.88468 7.67103 7.4582 8.09939 7.4582 8.62775C7.4582 9.15611 7.88468 9.58447 8.4107 9.58447C8.93673 9.58447 9.3632 9.15611 9.3632 8.62775C9.3632 8.09939 8.93673 7.67103 8.4107 7.67103ZM10.6168 9.76841C9.46644 9.76841 8.53484 10.7054 8.53484 11.8596C8.53484 13.0139 9.46767 13.9508 10.6168 13.9508C11.766 13.9508 12.6988 13.0139 12.6988 11.8596C12.6988 10.7054 11.766 9.76841 10.6168 9.76841ZM11.648 4.18486C10.4976 4.18486 9.566 5.12183 9.566 6.27607C9.566 7.43031 10.4988 8.36728 11.648 8.36728C12.7971 8.36728 13.73 7.43031 13.73 6.27607C13.73 5.12183 12.7971 4.18486 11.648 4.18486ZM6.37542 3.14914C5.22505 3.14914 4.29344 4.08611 4.29344 5.24034C4.29344 6.39458 5.22628 7.33155 6.37542 7.33155C7.52457 7.33155 8.45741 6.39458 8.45741 5.24034C8.45741 4.08611 7.52457 3.14914 6.37542 3.14914ZM5.26806 8.75243C4.11769 8.75243 3.18608 9.6894 3.18608 10.8436C3.18608 11.9979 4.11892 12.9348 5.26806 12.9348C6.41721 12.9348 7.35005 11.9979 7.35005 10.8436C7.35005 9.6894 6.41721 8.75243 5.26806 8.75243Z" fill="white"/>
<path fill-rule="evenodd" clip-rule="evenodd" d="M16.5009 7.29734C15.997 5.17651 15.4795 3.85685 13.6348 2.28906C14.9117 2.45448 15.9527 2.67669 16.6201 3.71118C17.2887 4.74444 16.9716 6.04681 16.5009 7.29734Z" fill="white"/>
<path fill-rule="evenodd" clip-rule="evenodd" d="M14.8638 13.4746C13.4074 15.0918 12.3234 16.0004 9.95508 16.4855C11.1546 16.9558 12.1735 17.262 13.2538 16.6781C14.3341 16.0942 14.6783 14.7992 14.8638 13.4746Z" fill="white"/>
<path fill-rule="evenodd" clip-rule="evenodd" d="M0.412177 9.96875C1.00457 12.0674 1.57607 13.3636 3.48599 14.8511C2.20288 14.74 1.15451 14.561 0.442903 13.5574C-0.267479 12.5525 -0.0056947 11.239 0.410948 9.96875H0.412177Z" fill="white"/>
<path fill-rule="evenodd" clip-rule="evenodd" d="M2.13281 3.40794C3.6519 1.85002 4.77155 0.985889 7.1571 0.595794C5.97723 0.0785476 4.97188 -0.268341 3.86944 0.272361C2.76699 0.813062 2.37247 2.09322 2.13404 3.40917L2.13281 3.40794Z" fill="white"/>
</g>
<defs>
<clipPath id="clip0_808_4565">
<rect width="17" height="17" fill="white"/>
</clipPath>
</defs>
</svg>
