<svg width="33" height="18" viewBox="0 0 33 18" fill="none" xmlns="http://www.w3.org/2000/svg">
<circle cx="31.5" cy="1.5" r="1.5" transform="rotate(90 31.5 1.5)" fill="#F5F1FF"/>
<circle cx="26.5" cy="1.5" r="1.5" transform="rotate(90 26.5 1.5)" fill="#F5F1FF"/>
<circle cx="21.5" cy="1.5" r="1.5" transform="rotate(90 21.5 1.5)" fill="#F5F1FF"/>
<circle cx="16.5" cy="1.5" r="1.5" transform="rotate(90 16.5 1.5)" fill="#F5F1FF"/>
<circle cx="11.5" cy="1.5" r="1.5" transform="rotate(90 11.5 1.5)" fill="#F5F1FF"/>
<circle cx="6.5" cy="1.5" r="1.5" transform="rotate(90 6.5 1.5)" fill="#F5F1FF"/>
<circle cx="1.5" cy="1.5" r="1.5" transform="rotate(90 1.5 1.5)" fill="#F5F1FF"/>
<circle cx="31.5" cy="6.5" r="1.5" transform="rotate(90 31.5 6.5)" fill="#F5F1FF"/>
<circle cx="26.5" cy="6.5" r="1.5" transform="rotate(90 26.5 6.5)" fill="#F5F1FF"/>
<circle cx="21.5" cy="6.5" r="1.5" transform="rotate(90 21.5 6.5)" fill="#F5F1FF"/>
<circle cx="16.5" cy="6.5" r="1.5" transform="rotate(90 16.5 6.5)" fill="#F5F1FF"/>
<circle cx="11.5" cy="6.5" r="1.5" transform="rotate(90 11.5 6.5)" fill="#F5F1FF"/>
<circle cx="6.5" cy="6.5" r="1.5" transform="rotate(90 6.5 6.5)" fill="#F5F1FF"/>
<circle cx="1.5" cy="6.5" r="1.5" transform="rotate(90 1.5 6.5)" fill="#F5F1FF"/>
<circle cx="31.5" cy="11.5" r="1.5" transform="rotate(90 31.5 11.5)" fill="#F5F1FF"/>
<circle cx="26.5" cy="11.5" r="1.5" transform="rotate(90 26.5 11.5)" fill="#F5F1FF"/>
<circle cx="21.5" cy="11.5" r="1.5" transform="rotate(90 21.5 11.5)" fill="#F5F1FF"/>
<circle cx="16.5" cy="11.5" r="1.5" transform="rotate(90 16.5 11.5)" fill="#F5F1FF"/>
<circle cx="11.5" cy="11.5" r="1.5" transform="rotate(90 11.5 11.5)" fill="#F5F1FF"/>
<circle cx="6.5" cy="11.5" r="1.5" transform="rotate(90 6.5 11.5)" fill="#F5F1FF"/>
<circle cx="1.5" cy="11.5" r="1.5" transform="rotate(90 1.5 11.5)" fill="#F5F1FF"/>
<circle cx="31.5" cy="16.5" r="1.5" transform="rotate(90 31.5 16.5)" fill="#F5F1FF"/>
<circle cx="26.5" cy="16.5" r="1.5" transform="rotate(90 26.5 16.5)" fill="#F5F1FF"/>
<circle cx="21.5" cy="16.5" r="1.5" transform="rotate(90 21.5 16.5)" fill="#F5F1FF"/>
<circle cx="16.5" cy="16.5" r="1.5" transform="rotate(90 16.5 16.5)" fill="#F5F1FF"/>
<circle cx="11.5" cy="16.5" r="1.5" transform="rotate(90 11.5 16.5)" fill="#F5F1FF"/>
<circle cx="6.5" cy="16.5" r="1.5" transform="rotate(90 6.5 16.5)" fill="#F5F1FF"/>
<circle cx="1.5" cy="16.5" r="1.5" transform="rotate(90 1.5 16.5)" fill="#F5F1FF"/>
</svg>
