<svg width="24" height="25" viewBox="0 0 24 25" fill="none" xmlns="http://www.w3.org/2000/svg">
<mask id="mask0_291_2311" style="mask-type:luminance" maskUnits="userSpaceOnUse" x="14" y="2" width="9" height="10">
<path fill-rule="evenodd" clip-rule="evenodd" d="M14.3535 2.50049H22.8925V11.0333H14.3535V2.50049Z" fill="white"/>
</mask>
<g mask="url(#mask0_291_2311)">
<path fill-rule="evenodd" clip-rule="evenodd" d="M22.1422 11.0333C21.7652 11.0333 21.4412 10.7503 21.3982 10.3673C21.0192 6.9913 18.3972 4.3713 15.0202 3.9963C14.6092 3.9503 14.3122 3.5803 14.3582 3.1683C14.4032 2.7573 14.7702 2.4543 15.1862 2.5063C19.2642 2.9593 22.4312 6.1223 22.8882 10.1993C22.9342 10.6113 22.6382 10.9823 22.2272 11.0283C22.1992 11.0313 22.1702 11.0333 22.1422 11.0333Z" fill="white"/>
</g>
<path fill-rule="evenodd" clip-rule="evenodd" d="M18.6024 11.0442C18.2504 11.0442 17.9374 10.7962 17.8674 10.4382C17.5794 8.95815 16.4384 7.81715 14.9604 7.53015C14.5534 7.45115 14.2884 7.05815 14.3674 6.65115C14.4464 6.24415 14.8464 5.97815 15.2464 6.05815C17.3274 6.46215 18.9344 8.06815 19.3394 10.1502C19.4184 10.5582 19.1534 10.9512 18.7474 11.0302C18.6984 11.0392 18.6504 11.0442 18.6024 11.0442Z" fill="white"/>
<path fill-rule="evenodd" clip-rule="evenodd" d="M3.28872 4.58785L3.36127 4.51204C5.28869 2.58444 6.54385 2.07351 7.88307 2.84362C8.2683 3.06515 8.62945 3.37523 9.12054 3.87401L10.6269 5.43603C11.4589 6.34393 11.6481 7.21478 11.3772 8.23465L11.3398 8.36967L11.2984 8.50392L11.097 9.09474C10.666 10.4197 10.846 11.1673 12.3795 12.7004C13.9742 14.2947 14.7186 14.4251 16.1457 13.9264L16.4001 13.838L16.7077 13.7381L16.8423 13.7007C17.9263 13.4115 18.842 13.6423 19.8132 14.6128L21.0269 15.7852L21.3842 16.1366C21.7803 16.5405 22.0421 16.8606 22.2355 17.1989C23.0008 18.5377 22.4893 19.7921 20.5063 21.7677L20.3177 21.9589C20.0216 22.2442 19.745 22.4486 19.3386 22.6416C18.6565 22.9655 17.8506 23.0876 16.9142 22.9573C14.6067 22.6364 11.6802 20.8158 7.97188 17.1085C7.67002 16.8067 7.3809 16.5107 7.10425 16.2205L6.56748 15.6476C1.53762 10.1828 1.09389 6.82588 3.15518 4.7205L3.28872 4.58785ZM7.90641 4.78093C7.58062 4.45973 7.34396 4.26394 7.13532 4.14396C6.67379 3.87856 6.1755 3.99074 5.25329 4.78448L4.96353 5.04334C4.91299 5.09 4.86129 5.13843 4.80838 5.18868L4.47611 5.51231L4.44617 5.54972L4.22091 5.77603C3.67656 6.33204 3.41871 7.01064 3.6409 8.17767C4.00551 10.0927 5.67442 12.6905 9.0324 16.0477C12.5313 19.5456 15.1972 21.2041 17.1208 21.4716C18.2422 21.6276 18.8142 21.356 19.3975 20.7584L19.8424 20.3095C20.051 20.0912 20.2292 19.8933 20.3797 19.7126L20.585 19.4539C21.1097 18.7551 21.1576 18.3358 20.9332 17.9433C20.8479 17.7939 20.7237 17.6302 20.5429 17.43L20.2977 17.171L20.1525 17.0258L18.6213 15.5472C18.1096 15.0753 17.7599 15.0084 17.229 15.15L17.0757 15.1941L16.4414 15.4094C14.6013 16.0037 13.2738 15.7155 11.3189 13.7612C9.29429 11.737 9.05685 10.3854 9.73522 8.43917L9.77874 8.31411L9.89908 7.95153L9.95823 7.72043C10.0631 7.21746 9.94337 6.86677 9.40269 6.32601C9.38043 6.30375 9.35555 6.27866 9.32847 6.2512L7.90641 4.78093Z" fill="white"/>
</svg>
