<svg width="482" height="302" viewBox="0 0 482 302" fill="none" xmlns="http://www.w3.org/2000/svg">
<g filter="url(#filter0_d_732_2803)">
<g clip-path="url(#clip0_732_2803)">
<path d="M64 266C55.1634 266 48 258.837 48 250L48 64C48 55.1634 55.1634 48 64 48L430 48C438.837 48 446 55.1634 446 64V250C446 258.837 438.837 266 430 266L64 266Z" fill="white"/>
<circle cx="303.5" cy="107.5" r="1.5" transform="rotate(90 303.5 107.5)" fill="#F5F1FF"/>
<circle cx="298.5" cy="107.5" r="1.5" transform="rotate(90 298.5 107.5)" fill="#F5F1FF"/>
<circle cx="293.5" cy="107.5" r="1.5" transform="rotate(90 293.5 107.5)" fill="#F5F1FF"/>
<circle cx="288.5" cy="107.5" r="1.5" transform="rotate(90 288.5 107.5)" fill="#F5F1FF"/>
<circle cx="283.5" cy="107.5" r="1.5" transform="rotate(90 283.5 107.5)" fill="#F5F1FF"/>
<circle cx="278.5" cy="107.5" r="1.5" transform="rotate(90 278.5 107.5)" fill="#F5F1FF"/>
<circle cx="273.5" cy="107.5" r="1.5" transform="rotate(90 273.5 107.5)" fill="#F5F1FF"/>
<circle cx="303.5" cy="112.5" r="1.5" transform="rotate(90 303.5 112.5)" fill="#F5F1FF"/>
<circle cx="298.5" cy="112.5" r="1.5" transform="rotate(90 298.5 112.5)" fill="#F5F1FF"/>
<circle cx="293.5" cy="112.5" r="1.5" transform="rotate(90 293.5 112.5)" fill="#F5F1FF"/>
<circle cx="288.5" cy="112.5" r="1.5" transform="rotate(90 288.5 112.5)" fill="#F5F1FF"/>
<circle cx="283.5" cy="112.5" r="1.5" transform="rotate(90 283.5 112.5)" fill="#F5F1FF"/>
<circle cx="278.5" cy="112.5" r="1.5" transform="rotate(90 278.5 112.5)" fill="#F5F1FF"/>
<circle cx="273.5" cy="112.5" r="1.5" transform="rotate(90 273.5 112.5)" fill="#F5F1FF"/>
<circle cx="303.5" cy="117.5" r="1.5" transform="rotate(90 303.5 117.5)" fill="#F5F1FF"/>
<circle cx="298.5" cy="117.5" r="1.5" transform="rotate(90 298.5 117.5)" fill="#F5F1FF"/>
<circle cx="293.5" cy="117.5" r="1.5" transform="rotate(90 293.5 117.5)" fill="#F5F1FF"/>
<circle cx="288.5" cy="117.5" r="1.5" transform="rotate(90 288.5 117.5)" fill="#F5F1FF"/>
<circle cx="283.5" cy="117.5" r="1.5" transform="rotate(90 283.5 117.5)" fill="#F5F1FF"/>
<circle cx="278.5" cy="117.5" r="1.5" transform="rotate(90 278.5 117.5)" fill="#F5F1FF"/>
<circle cx="273.5" cy="117.5" r="1.5" transform="rotate(90 273.5 117.5)" fill="#F5F1FF"/>
<circle cx="303.5" cy="122.5" r="1.5" transform="rotate(90 303.5 122.5)" fill="#F5F1FF"/>
<circle cx="298.5" cy="122.5" r="1.5" transform="rotate(90 298.5 122.5)" fill="#F5F1FF"/>
<circle cx="293.5" cy="122.5" r="1.5" transform="rotate(90 293.5 122.5)" fill="#F5F1FF"/>
<circle cx="288.5" cy="122.5" r="1.5" transform="rotate(90 288.5 122.5)" fill="#F5F1FF"/>
<circle cx="283.5" cy="122.5" r="1.5" transform="rotate(90 283.5 122.5)" fill="#F5F1FF"/>
<circle cx="278.5" cy="122.5" r="1.5" transform="rotate(90 278.5 122.5)" fill="#F5F1FF"/>
<circle cx="273.5" cy="122.5" r="1.5" transform="rotate(90 273.5 122.5)" fill="#F5F1FF"/>
<circle cx="116.5" cy="229.5" r="1.5" transform="rotate(90 116.5 229.5)" fill="#F5F1FF"/>
<circle cx="111.5" cy="229.5" r="1.5" transform="rotate(90 111.5 229.5)" fill="#F5F1FF"/>
<circle cx="106.5" cy="229.5" r="1.5" transform="rotate(90 106.5 229.5)" fill="#F5F1FF"/>
<circle cx="101.5" cy="229.5" r="1.5" transform="rotate(90 101.5 229.5)" fill="#F5F1FF"/>
<circle cx="96.5" cy="229.5" r="1.5" transform="rotate(90 96.5 229.5)" fill="#F5F1FF"/>
<circle cx="91.5" cy="229.5" r="1.5" transform="rotate(90 91.5 229.5)" fill="#F5F1FF"/>
<circle cx="86.5" cy="229.5" r="1.5" transform="rotate(90 86.5 229.5)" fill="#F5F1FF"/>
<circle cx="116.5" cy="234.5" r="1.5" transform="rotate(90 116.5 234.5)" fill="#F5F1FF"/>
<circle cx="111.5" cy="234.5" r="1.5" transform="rotate(90 111.5 234.5)" fill="#F5F1FF"/>
<circle cx="106.5" cy="234.5" r="1.5" transform="rotate(90 106.5 234.5)" fill="#F5F1FF"/>
<circle cx="101.5" cy="234.5" r="1.5" transform="rotate(90 101.5 234.5)" fill="#F5F1FF"/>
<circle cx="96.5" cy="234.5" r="1.5" transform="rotate(90 96.5 234.5)" fill="#F5F1FF"/>
<circle cx="91.5" cy="234.5" r="1.5" transform="rotate(90 91.5 234.5)" fill="#F5F1FF"/>
<circle cx="86.5" cy="234.5" r="1.5" transform="rotate(90 86.5 234.5)" fill="#F5F1FF"/>
<circle cx="116.5" cy="239.5" r="1.5" transform="rotate(90 116.5 239.5)" fill="#F5F1FF"/>
<circle cx="111.5" cy="239.5" r="1.5" transform="rotate(90 111.5 239.5)" fill="#F5F1FF"/>
<circle cx="106.5" cy="239.5" r="1.5" transform="rotate(90 106.5 239.5)" fill="#F5F1FF"/>
<circle cx="101.5" cy="239.5" r="1.5" transform="rotate(90 101.5 239.5)" fill="#F5F1FF"/>
<circle cx="96.5" cy="239.5" r="1.5" transform="rotate(90 96.5 239.5)" fill="#F5F1FF"/>
<circle cx="91.5" cy="239.5" r="1.5" transform="rotate(90 91.5 239.5)" fill="#F5F1FF"/>
<circle cx="86.5" cy="239.5" r="1.5" transform="rotate(90 86.5 239.5)" fill="#F5F1FF"/>
<circle cx="116.5" cy="244.5" r="1.5" transform="rotate(90 116.5 244.5)" fill="#F5F1FF"/>
<circle cx="111.5" cy="244.5" r="1.5" transform="rotate(90 111.5 244.5)" fill="#F5F1FF"/>
<circle cx="106.5" cy="244.5" r="1.5" transform="rotate(90 106.5 244.5)" fill="#F5F1FF"/>
<circle cx="101.5" cy="244.5" r="1.5" transform="rotate(90 101.5 244.5)" fill="#F5F1FF"/>
<circle cx="96.5" cy="244.5" r="1.5" transform="rotate(90 96.5 244.5)" fill="#F5F1FF"/>
<circle cx="91.5" cy="244.5" r="1.5" transform="rotate(90 91.5 244.5)" fill="#F5F1FF"/>
<circle cx="86.5" cy="244.5" r="1.5" transform="rotate(90 86.5 244.5)" fill="#F5F1FF"/>
<circle cx="364.5" cy="218.5" r="1.5" fill="#F5F1FF"/>
<circle cx="364.5" cy="223.5" r="1.5" fill="#F5F1FF"/>
<circle cx="364.5" cy="228.5" r="1.5" fill="#F5F1FF"/>
<circle cx="364.5" cy="233.5" r="1.5" fill="#F5F1FF"/>
<circle cx="364.5" cy="238.5" r="1.5" fill="#F5F1FF"/>
<circle cx="364.5" cy="243.5" r="1.5" fill="#F5F1FF"/>
<circle cx="364.5" cy="248.5" r="1.5" fill="#F5F1FF"/>
<circle cx="369.5" cy="218.5" r="1.5" fill="#F5F1FF"/>
<circle cx="369.5" cy="223.5" r="1.5" fill="#F5F1FF"/>
<circle cx="369.5" cy="228.5" r="1.5" fill="#F5F1FF"/>
<circle cx="369.5" cy="233.5" r="1.5" fill="#F5F1FF"/>
<circle cx="369.5" cy="238.5" r="1.5" fill="#F5F1FF"/>
<circle cx="369.5" cy="243.5" r="1.5" fill="#F5F1FF"/>
<circle cx="369.5" cy="248.5" r="1.5" fill="#F5F1FF"/>
<circle cx="374.5" cy="218.5" r="1.5" fill="#F5F1FF"/>
<circle cx="374.5" cy="223.5" r="1.5" fill="#F5F1FF"/>
<circle cx="374.5" cy="228.5" r="1.5" fill="#F5F1FF"/>
<circle cx="374.5" cy="233.5" r="1.5" fill="#F5F1FF"/>
<circle cx="374.5" cy="238.5" r="1.5" fill="#F5F1FF"/>
<circle cx="374.5" cy="243.5" r="1.5" fill="#F5F1FF"/>
<circle cx="374.5" cy="248.5" r="1.5" fill="#F5F1FF"/>
<circle cx="379.5" cy="218.5" r="1.5" fill="#F5F1FF"/>
<circle cx="379.5" cy="223.5" r="1.5" fill="#F5F1FF"/>
<circle cx="379.5" cy="228.5" r="1.5" fill="#F5F1FF"/>
<circle cx="379.5" cy="233.5" r="1.5" fill="#F5F1FF"/>
<circle cx="379.5" cy="238.5" r="1.5" fill="#F5F1FF"/>
<circle cx="379.5" cy="243.5" r="1.5" fill="#F5F1FF"/>
<circle cx="379.5" cy="248.5" r="1.5" fill="#F5F1FF"/>
<rect x="48" y="168" width="88" height="101" transform="rotate(-90 48 168)" fill="#F5F1FF"/>
</g>
</g>
<defs>
<filter id="filter0_d_732_2803" x="0" y="0" width="482" height="302" filterUnits="userSpaceOnUse" color-interpolation-filters="sRGB">
<feFlood flood-opacity="0" result="BackgroundImageFix"/>
<feColorMatrix in="SourceAlpha" type="matrix" values="0 0 0 0 0 0 0 0 0 0 0 0 0 0 0 0 0 0 127 0" result="hardAlpha"/>
<feMorphology radius="2" operator="dilate" in="SourceAlpha" result="effect1_dropShadow_732_2803"/>
<feOffset dx="-6" dy="-6"/>
<feGaussianBlur stdDeviation="20"/>
<feComposite in2="hardAlpha" operator="out"/>
<feColorMatrix type="matrix" values="0 0 0 0 0 0 0 0 0 0 0 0 0 0 0 0 0 0 0.05 0"/>
<feBlend mode="normal" in2="BackgroundImageFix" result="effect1_dropShadow_732_2803"/>
<feBlend mode="normal" in="SourceGraphic" in2="effect1_dropShadow_732_2803" result="shape"/>
</filter>
<clipPath id="clip0_732_2803">
<path d="M64 266C55.1634 266 48 258.837 48 250L48 64C48 55.1634 55.1634 48 64 48L430 48C438.837 48 446 55.1634 446 64V250C446 258.837 438.837 266 430 266L64 266Z" fill="white"/>
</clipPath>
</defs>
</svg>
