<svg width="18" height="33" viewBox="0 0 18 33" fill="none" xmlns="http://www.w3.org/2000/svg">
<circle cx="1.5" cy="1.5" r="1.5" fill="#F5F1FF"/>
<circle cx="1.5" cy="6.5" r="1.5" fill="#F5F1FF"/>
<circle cx="1.5" cy="11.5" r="1.5" fill="#F5F1FF"/>
<circle cx="1.5" cy="16.5" r="1.5" fill="#F5F1FF"/>
<circle cx="1.5" cy="21.5" r="1.5" fill="#F5F1FF"/>
<circle cx="1.5" cy="26.5" r="1.5" fill="#F5F1FF"/>
<circle cx="1.5" cy="31.5" r="1.5" fill="#F5F1FF"/>
<circle cx="6.5" cy="1.5" r="1.5" fill="#F5F1FF"/>
<circle cx="6.5" cy="6.5" r="1.5" fill="#F5F1FF"/>
<circle cx="6.5" cy="11.5" r="1.5" fill="#F5F1FF"/>
<circle cx="6.5" cy="16.5" r="1.5" fill="#F5F1FF"/>
<circle cx="6.5" cy="21.5" r="1.5" fill="#F5F1FF"/>
<circle cx="6.5" cy="26.5" r="1.5" fill="#F5F1FF"/>
<circle cx="6.5" cy="31.5" r="1.5" fill="#F5F1FF"/>
<circle cx="11.5" cy="1.5" r="1.5" fill="#F5F1FF"/>
<circle cx="11.5" cy="6.5" r="1.5" fill="#F5F1FF"/>
<circle cx="11.5" cy="11.5" r="1.5" fill="#F5F1FF"/>
<circle cx="11.5" cy="16.5" r="1.5" fill="#F5F1FF"/>
<circle cx="11.5" cy="21.5" r="1.5" fill="#F5F1FF"/>
<circle cx="11.5" cy="26.5" r="1.5" fill="#F5F1FF"/>
<circle cx="11.5" cy="31.5" r="1.5" fill="#F5F1FF"/>
<circle cx="16.5" cy="1.5" r="1.5" fill="#F5F1FF"/>
<circle cx="16.5" cy="6.5" r="1.5" fill="#F5F1FF"/>
<circle cx="16.5" cy="11.5" r="1.5" fill="#F5F1FF"/>
<circle cx="16.5" cy="16.5" r="1.5" fill="#F5F1FF"/>
<circle cx="16.5" cy="21.5" r="1.5" fill="#F5F1FF"/>
<circle cx="16.5" cy="26.5" r="1.5" fill="#F5F1FF"/>
<circle cx="16.5" cy="31.5" r="1.5" fill="#F5F1FF"/>
</svg>
