<svg width="18" height="18" viewBox="0 0 18 18" fill="none" xmlns="http://www.w3.org/2000/svg">
<path d="M8.81074 0C6.44063 0 6.14319 0.0103638 5.21231 0.0527274C4.28324 0.0952729 3.64908 0.242364 3.09419 0.458182C2.52021 0.681091 2.03331 0.979273 1.54824 1.46455C1.0628 1.94964 0.764623 2.43655 0.540994 3.01036C0.324637 3.56545 0.177369 4.19982 0.135552 5.12855C0.0939165 6.05945 0.0830078 6.35709 0.0830078 8.72727C0.0830078 11.0975 0.0935531 11.394 0.135734 12.3249C0.17846 13.254 0.325546 13.8882 0.541176 14.4431C0.76426 15.0171 1.06243 15.504 1.54769 15.9891C2.03259 16.4745 2.51948 16.7735 3.0931 16.9964C3.64835 17.2122 4.2827 17.3593 5.21158 17.4018C6.14246 17.4442 6.43972 17.4545 8.80965 17.4545C11.1799 17.4545 11.4765 17.4442 12.4074 17.4018C13.3364 17.3593 13.9713 17.2122 14.5266 16.9964C15.1004 16.7735 15.5865 16.4745 16.0714 15.9891C16.5569 15.504 16.855 15.0171 17.0787 14.4433C17.2932 13.8882 17.4405 13.2538 17.4841 12.3251C17.5259 11.3942 17.5368 11.0975 17.5368 8.72727C17.5368 6.35709 17.5259 6.05964 17.4841 5.12873C17.4405 4.19964 17.2932 3.56545 17.0787 3.01055C16.855 2.43655 16.5569 1.94964 16.0714 1.46455C15.586 0.979091 15.1006 0.680909 14.526 0.458182C13.9697 0.242364 13.3352 0.0952729 12.4061 0.0527274C11.4752 0.0103638 11.1789 0 8.80802 0H8.81074ZM8.02786 1.57273C8.26021 1.57236 8.51948 1.57273 8.81074 1.57273C11.1409 1.57273 11.417 1.58109 12.3372 1.62291C13.1881 1.66182 13.6499 1.804 13.9575 1.92345C14.3648 2.08164 14.6551 2.27073 14.9604 2.57618C15.2658 2.88164 15.4549 3.17255 15.6134 3.57982C15.7329 3.88709 15.8753 4.34891 15.914 5.19982C15.9558 6.11982 15.9649 6.39618 15.9649 8.72527C15.9649 11.0544 15.9558 11.3307 15.914 12.2507C15.8751 13.1016 15.7329 13.5635 15.6134 13.8707C15.4553 14.278 15.2658 14.568 14.9604 14.8733C14.6549 15.1787 14.3649 15.3678 13.9575 15.526C13.6502 15.646 13.1881 15.7878 12.3372 15.8267C11.4172 15.8685 11.1409 15.8776 8.81074 15.8776C6.48045 15.8776 6.20428 15.8685 5.28431 15.8267C4.43342 15.7875 3.97162 15.6453 3.66381 15.5258C3.25655 15.3676 2.96565 15.1785 2.6602 14.8731C2.35476 14.5676 2.16567 14.2775 2.00713 13.87C1.88768 13.5627 1.74532 13.1009 1.7066 12.25C1.66478 11.33 1.65641 11.0536 1.65641 8.72309C1.65641 6.39254 1.66478 6.11764 1.7066 5.19764C1.7455 4.34673 1.88768 3.88491 2.00713 3.57727C2.16531 3.17 2.35476 2.87909 2.6602 2.57364C2.96565 2.26818 3.25655 2.07909 3.66381 1.92055C3.97144 1.80055 4.43342 1.65873 5.28431 1.61964C6.08937 1.58327 6.40136 1.57236 8.02786 1.57055V1.57273ZM13.4691 3.02182C12.891 3.02182 12.4219 3.49036 12.4219 4.06873C12.4219 4.64691 12.891 5.116 13.4691 5.116C14.0473 5.116 14.5164 4.64691 14.5164 4.06873C14.5164 3.49055 14.0473 3.02145 13.4691 3.02145V3.02182ZM8.81074 4.24545C6.33573 4.24545 4.32906 6.25218 4.32906 8.72727C4.32906 11.2024 6.33573 13.2082 8.81074 13.2082C11.2858 13.2082 13.2917 11.2024 13.2917 8.72727C13.2917 6.25218 11.2856 4.24545 8.81056 4.24545H8.81074ZM8.81074 5.81818C10.4172 5.81818 11.7197 7.12054 11.7197 8.72727C11.7197 10.3338 10.4172 11.6364 8.81074 11.6364C7.20406 11.6364 5.90174 10.3338 5.90174 8.72727C5.90174 7.12054 7.20406 5.81818 8.81074 5.81818Z" fill="white"/>
</svg>
