<svg width="18" height="18" viewBox="0 0 18 18" fill="none" xmlns="http://www.w3.org/2000/svg">
<path d="M2.08199 4.16399C3.23185 4.16399 4.16399 3.23185 4.16399 2.08199C4.16399 0.932141 3.23185 0 2.08199 0C0.932141 0 0 0.932141 0 2.08199C0 3.23185 0.932141 4.16399 2.08199 4.16399Z" fill="white"/>
<path d="M6.07074 5.70265H9.52128V7.28336C9.52128 7.28336 10.4576 5.41065 13.0053 5.41065C15.2779 5.41065 17.1606 6.53021 17.1606 9.9427V17.1387H13.5848V10.8147C13.5848 8.80161 12.5101 8.58021 11.6912 8.58021C9.99157 8.58021 9.7006 10.0462 9.7006 11.0772V17.1387H6.07074V5.70265Z" fill="white"/>
<path d="M0.267069 5.70265H3.89693V17.1387H0.267069V5.70265Z" fill="white"/>
</svg>
