<svg width="24" height="24" viewBox="0 0 24 24" fill="none" xmlns="http://www.w3.org/2000/svg">
<path fill-rule="evenodd" clip-rule="evenodd" d="M0.562933 2.69513C0 3.77882 0 5.20255 0 8.05V15.95C0 18.7975 0 20.2212 0.562933 21.3049C1.03731 22.2181 1.78191 22.9627 2.69513 23.4371C3.77882 24 5.20255 24 8.05 24H15.95C18.7975 24 20.2212 24 21.3049 23.4371C22.2181 22.9627 22.9627 22.2181 23.4371 21.3049C24 20.2212 24 18.7975 24 15.95V8.05C24 5.20255 24 3.77882 23.4371 2.69513C22.9627 1.78191 22.2181 1.03731 21.3049 0.562933C20.2212 0 18.7975 0 15.95 0H8.05C5.20255 0 3.77882 0 2.69513 0.562933C1.78191 1.03731 1.03731 1.78191 0.562933 2.69513ZM5.3869 7.4533C6.53676 7.4533 7.4689 6.52116 7.4689 5.3713C7.4689 4.22145 6.53676 3.28931 5.3869 3.28931C4.23705 3.28931 3.30491 4.22145 3.30491 5.3713C3.30491 6.52116 4.23705 7.4533 5.3869 7.4533ZM9.37565 8.99195H12.8262V10.5727C12.8262 10.5727 13.7625 8.69996 16.3102 8.69996C18.5828 8.69996 20.4655 9.81952 20.4655 13.232V20.428H16.8897V14.104C16.8897 12.0909 15.815 11.8695 14.9961 11.8695C13.2965 11.8695 13.0055 13.3355 13.0055 14.3666V20.428H9.37565V8.99195ZM7.20184 8.99196H3.57198V20.428H7.20184V8.99196Z" fill="white"/>
</svg>
