<svg width="24" height="24" viewBox="0 0 24 24" fill="none" xmlns="http://www.w3.org/2000/svg">
<path fill-rule="evenodd" clip-rule="evenodd" d="M0.562933 2.69513C0 3.77882 0 5.20255 0 8.05V15.95C0 18.7975 0 20.2212 0.562933 21.3049C1.03731 22.2181 1.78191 22.9627 2.69513 23.4371C3.77882 24 5.20255 24 8.05 24H15.95C18.7975 24 20.2212 24 21.3049 23.4371C22.2181 22.9627 22.9627 22.2181 23.4371 21.3049C24 20.2212 24 18.7975 24 15.95V8.05C24 5.20255 24 3.77882 23.4371 2.69513C22.9627 1.78191 22.2181 1.03731 21.3049 0.562933C20.2212 0 18.7975 0 15.95 0H8.05C5.20255 0 3.77882 0 2.69513 0.562933C1.78191 1.03731 1.03731 1.78191 0.562933 2.69513ZM18.6692 9.52575C18.6692 9.37585 18.6673 9.22601 18.6615 9.07611C19.2823 8.59233 19.8197 7.98601 20.2467 7.29782C19.6776 7.57037 19.0639 7.7542 18.4205 7.83596C19.0781 7.41351 19.5813 6.7391 19.8197 5.93508C19.2047 6.33027 18.5251 6.61643 17.7997 6.76633C17.2202 6.09859 16.3947 5.68289 15.4806 5.68289C13.7248 5.68289 12.3017 7.22282 12.3017 9.12385C12.3017 9.38958 12.3295 9.65525 12.3837 9.90736C9.74227 9.76427 7.39924 8.39469 5.83207 6.3097C5.55687 6.82073 5.40055 7.41355 5.40055 8.04041C5.40055 9.23281 5.96192 10.2889 6.81592 10.909C6.2946 10.8885 5.80366 10.7319 5.37472 10.4798V10.5207C5.37472 12.1901 6.47095 13.58 7.92637 13.8934C7.65764 13.9752 7.37728 14.016 7.08852 14.016C6.88374 14.016 6.6835 13.9955 6.48906 13.9547C6.89409 15.3174 8.0685 16.319 9.45932 16.3395C8.37147 17.2661 7.00003 17.8181 5.51102 17.8181C5.25456 17.8181 5.00198 17.7977 4.75327 17.7704C6.16024 18.7448 7.83013 19.3171 9.62598 19.3171C15.4722 19.3171 18.6692 14.0705 18.6692 9.52575Z" fill="white"/>
</svg>
