<svg width="16" height="14" viewBox="0 0 16 14" fill="none" xmlns="http://www.w3.org/2000/svg">
<path fill-rule="evenodd" clip-rule="evenodd" d="M13.9082 3.39321C13.914 3.54312 13.9159 3.69296 13.9159 3.84286C13.9159 8.3876 10.7189 13.6342 4.87271 13.6342C3.07685 13.6342 1.40697 13.0619 0 12.0875C0.248706 12.1148 0.501292 12.1353 0.75775 12.1353C2.24676 12.1353 3.6182 11.5832 4.70605 10.6566C3.31523 10.6361 2.14082 9.63451 1.73579 8.27177C1.93023 8.31265 2.13047 8.33315 2.33525 8.33315C2.62401 8.33315 2.90437 8.29232 3.1731 8.21055C1.71768 7.89712 0.621447 6.50716 0.621447 4.8378C0.621447 4.81736 0.621447 4.8105 0.621447 4.79688C1.05038 5.04898 1.54133 5.20562 2.06264 5.22606C1.20864 4.60601 0.647272 3.54992 0.647272 2.35752C0.647272 1.73066 0.803602 1.13784 1.07879 0.626808C2.64597 2.7118 4.989 4.08138 7.63045 4.22447C7.57619 3.97236 7.5484 3.70669 7.5484 3.44096C7.5484 1.53993 8.97151 0 10.7273 0C11.6414 0 12.467 0.415696 13.0464 1.08344C13.7719 0.933538 14.4515 0.647382 15.0664 0.252187C14.8281 1.0562 14.3248 1.73062 13.6672 2.15307C14.3106 2.07131 14.9243 1.88748 15.4935 1.61493C15.0665 2.30311 14.529 2.90944 13.9082 3.39321Z" fill="white"/>
</svg>
